<svg version="1.1"
      xmlns="http://www.w3.org/2000/svg"
      xmlns:xlink="http://www.w3.org/1999/xlink"  id="snapshot-56986" width="641" height="273" viewBox="0 0 641 273"><desc>This image was made on Patterninja.com</desc><defs>
<!-- image 13238 -->
<g id="transformed-13238" data-image="13238" transform="translate(-99.04544411531505, -99.04544411531506) rotate(1, 99.04544411531505, 99.04544411531506)"><g><svg version="1.1" width="198.0908882306301px" height="198.09088823063013px" viewBox="0 0 198.0908882306301 198.09088823063013"><g id="original-13238"><svg xmlns="http://www.w3.org/2000/svg" viewBox="0 0 128 128" data-name="Layer 1" xmlns:xlink="http://www.w3.org/1999/xlink" version="1.1" preserveAspectRatio="xMidYMid meet">
  <path d="M121.5 78.73a25.082 25.082 0 0 1-25.08 25.08H31.58a25.081 25.081 0 0 1-2.56-50.03c-.02-.28-.02-.56-.02-.84a28.753 28.753 0 0 1 54.63-12.53 18.22 18.22 0 0 1 2.87-.22 18.762 18.762 0 0 1 18.36 14.92 25.078 25.078 0 0 1 16.64 23.62z" fill="rgba(244, 247, 250, 1)" stroke="none"/>
</svg>
</g></svg></g></g>
<!-- /image 13238 -->
</defs><rect x="0" y="0" width="641" height="273" fill="rgba(236, 241, 247, 1)"></rect><use xlink:href="#transformed-13238" transform="translate(-641, -273)"></use><use xlink:href="#transformed-13238" transform="translate(0, -273)"></use><use xlink:href="#transformed-13238" transform="translate(641, -273)"></use><use xlink:href="#transformed-13238" transform="translate(-641, 0)"></use><use xlink:href="#transformed-13238" transform="translate(0, 0)"></use><use xlink:href="#transformed-13238" transform="translate(641, 0)"></use><use xlink:href="#transformed-13238" transform="translate(-641, 273)"></use><use xlink:href="#transformed-13238" transform="translate(0, 273)"></use><use xlink:href="#transformed-13238" transform="translate(641, 273)"></use></svg>