<?xml version="1.0"?><svg width="640" height="480" xmlns="http://www.w3.org/2000/svg">
 <title>ocean waves</title>
 <metadata id="metadata2899">image/svg+xml</metadata>
 <g>
  <title>Layer 1</title>
  <path fill="#000000" fill-rule="evenodd" stroke="#000000" stroke-width="3" d="m1.655823,371.256531c19.549865,-7.964264 39.099716,-31.857025 78.199432,-31.857025c39.099716,0 39.099716,31.857025 78.199417,31.857025c39.099686,0 39.099686,-31.857025 78.199387,-31.857025c39.099731,0 39.099731,31.857025 78.198914,31.857025c39.099731,0 39.099731,-31.857025 78.199493,-31.857025c39.099701,0 39.099701,31.857025 78.19931,31.857025c39.099701,0 39.099701,-31.857025 78.199432,-31.857025c39.09967,0 39.09967,31.857025 78.198914,31.857025c39.100281,0 39.100281,-31.857025 78.199463,-31.857025c39.099731,0 58.649597,23.892761 78.199402,31.857025" id="path2454"/>
  <rect id="svg_1" view-box="0 0 300 300" y="372" x="-1" stroke-linecap="null" stroke-linejoin="null" stroke-dasharray="null" stroke-width="3" stroke="#000000" fill="#000000"/>
  </g>
</svg>
